# xmcd
#
# Track frame offsets:
#	150
#	13746
#	28814
#	41686
#	54783
#	65104
#	77792
#	91783
#	105221
#	119141
#	132727
#	148821
#	163262
#	176927
#
# Disc length: 2577 seconds
#
# Revision: 0
# Processed by: cddbd v1.5.2PL0 Copyright (c) Steve Scherf et al.
# Submitted via: EasyCDDAExtractor 12.0.2.1
#
DISCID=cc0a0f0e
DTITLE=Judith and Mel - Sag´noch einmal "Ich liebe Dich"
DYEAR=2008
DGENRE=Volksmusik
TTITLE0=Sag´noch einmal "ich liebe Dich"
TTITLE1=Alles wird gut
TTITLE2=Die goldenen Jahre
TTITLE3=Mitten in´s Herz
TTITLE4=Viel Glück
TTITLE5=Ich traf ein paar Freunde
TTITLE6=Die Liebe siegt
TTITLE7=Du für immer
TTITLE8=Wer liebt , der lebt
TTITLE9=Musik bringt uns die Sonne
TTITLE10=Unsere Liebe ist ein Diamant
TTITLE11=Wir sind stolz auf uns´re Heimat
TTITLE12=Glaub an dein Glück
TTITLE13=Liebe macht alles wieder gut
EXTD=
EXTT0=
EXTT1=
EXTT2=
EXTT3=
EXTT4=
EXTT5=
EXTT6=
EXTT7=
EXTT8=
EXTT9=
EXTT10=
EXTT11=
EXTT12=
EXTT13=
PLAYORDER=
